<svg xmlns="http://www.w3.org/2000/svg" width="50" height="50" viewBox="0 0 49.999999 49.999998" enable-background="new 0 0 72.818 72.814"><g fill="#1b1819"><path d="M42.702 25.822c.01-.233-.106-.448-.296-.558-.192-.11-.426-.097-.603.04-8.002 6.096-14.058 7.197-17.55 7.06-.23 0-.46.146-.548.383-.088.237-.03.508.148.675 2.797 2.652 6.454 5.01 10.87 7.008.072.033.146.048.222.048.115 0 .233-.037.33-.112 4.482-3.402 7.188-8.704 7.427-14.544z"/><path d="M30.63 29.37c-.127.216-.11.492.036.692.11.15.276.23.445.23.062 0 .122-.01.182-.03 3.547-1.255 7.286-3.45 11.114-6.52.158-.125.243-.333.223-.54-.524-5.83-3.48-10.982-8.11-14.122-.183-.123-.416-.125-.603-.005-.184.12-.29.343-.27.574.95 10.36-1.116 16.44-3.018 19.72z"/><path d="M16.847 9.347c8.895 4.303 12.805 9.25 14.52 12.646.1.2.293.32.5.32.028 0 .054-.004.083-.008.237-.037.426-.23.475-.477.755-3.9.84-8.448.26-13.514-.024-.21-.147-.39-.33-.477-2.305-1.118-4.858-1.71-7.38-1.71-2.817 0-5.638.735-8.153 2.13-.19.11-.313.322-.307.556.006.23.134.438.332.534z"/><path d="M7.3 24.176c-.01.232.106.45.297.56.085.047.18.07.272.07.114 0 .232-.037.33-.11 8.007-6.1 14.08-7.155 17.554-7.065.228.006.457-.147.543-.38.088-.24.027-.508-.15-.676-2.796-2.652-6.453-5.008-10.87-7.005-.18-.083-.39-.06-.552.064-4.478 3.4-7.185 8.7-7.424 14.542z"/><path d="M19.374 20.63c.126-.216.112-.494-.036-.692-.147-.2-.398-.278-.626-.2-3.55 1.255-7.29 3.45-11.116 6.52-.158.125-.243.333-.223.54.523 5.833 3.48 10.98 8.108 14.12.094.066.2.097.308.097h.016c.315 0 .567-.272.567-.605 0-.07-.01-.134-.028-.197-.917-10.274 1.14-16.318 3.032-19.582z"/><path d="M33.155 40.654c-8.893-4.304-12.803-9.254-14.52-12.65-.112-.223-.348-.344-.58-.313-.238.04-.43.23-.476.48-.756 3.902-.843 8.45-.26 13.514.022.21.145.392.326.478 2.307 1.118 4.858 1.71 7.382 1.71 2.818 0 5.637-.737 8.153-2.13.193-.108.315-.324.31-.556-.01-.232-.137-.438-.335-.532z"/><path d="M1.14 14.474c.626 0 1.136-.544 1.136-1.212V2.776c0-.195.148-.352.332-.352h9.842c.627 0 1.137-.542 1.137-1.21 0-.67-.51-1.212-1.137-1.212H2.608C1.168.002 0 1.247 0 2.777v10.486c0 .666.51 1.21 1.14 1.21z"/><path d="M47.395 0H37.55c-.626 0-1.136.542-1.136 1.21 0 .67.51 1.212 1.137 1.212h9.845c.183 0 .332.158.332.354V13.26c0 .67.508 1.212 1.135 1.212.628 0 1.138-.543 1.138-1.21V2.775C50 1.246 48.83 0 47.395 0z"/><path d="M48.862 35.526c-.627 0-1.135.544-1.135 1.212V47.22c0 .198-.15.356-.332.356h-9.842c-.627 0-1.137.543-1.137 1.212 0 .67.51 1.212 1.137 1.212h9.842C48.83 50 50 48.753 50 47.22V36.737c0-.666-.51-1.21-1.138-1.21z"/><path d="M12.45 47.575H2.606c-.184 0-.33-.158-.33-.355V36.738c0-.668-.51-1.212-1.137-1.212-.63 0-1.14.544-1.14 1.212V47.22C0 48.756 1.17 50 2.606 50h9.844c.627 0 1.137-.543 1.137-1.212 0-.67-.51-1.213-1.137-1.213z"/></g></svg>