<?xml version="1.0" encoding="UTF-8" standalone="no"?>
<!-- Generator: Adobe Illustrator 16.0.4, SVG Export Plug-In . SVG Version: 6.00 Build 0)  -->

<svg
   xmlns:dc="http://purl.org/dc/elements/1.1/"
   xmlns:cc="http://creativecommons.org/ns#"
   xmlns:rdf="http://www.w3.org/1999/02/22-rdf-syntax-ns#"
   xmlns:svg="http://www.w3.org/2000/svg"
   xmlns="http://www.w3.org/2000/svg"
   xmlns:sodipodi="http://sodipodi.sourceforge.net/DTD/sodipodi-0.dtd"
   xmlns:inkscape="http://www.inkscape.org/namespaces/inkscape"
   version="1.1"
   id="Layer_1"
   x="0px"
   y="0px"
   width="50"
   height="50"
   viewBox="0 0 49.999999 49.999998"
   enable-background="new 0 0 72.818 72.814"
   xml:space="preserve"
   inkscape:version="0.48.4 r9939"
   sodipodi:docname="diaphragm2.svg"><metadata
   id="metadata29"><rdf:RDF><cc:Work
       rdf:about=""><dc:format>image/svg+xml</dc:format><dc:type
         rdf:resource="http://purl.org/dc/dcmitype/StillImage" /><dc:title></dc:title></cc:Work></rdf:RDF></metadata><defs
   id="defs27" /><sodipodi:namedview
   pagecolor="#ffffff"
   bordercolor="#666666"
   borderopacity="1"
   objecttolerance="10"
   gridtolerance="10"
   guidetolerance="10"
   inkscape:pageopacity="0"
   inkscape:pageshadow="2"
   inkscape:window-width="843"
   inkscape:window-height="575"
   id="namedview25"
   showgrid="false"
   inkscape:zoom="3.2411348"
   inkscape:cx="36.409"
   inkscape:cy="36.407001"
   inkscape:window-x="1621"
   inkscape:window-y="0"
   inkscape:window-maximized="0"
   inkscape:current-layer="Layer_1" />
<g
   id="g3"
   transform="matrix(1.0041572,0,0,1.0697475,-11.560862,-13.946294)"
   inkscape:export-filename="F:\xampp\htdocs\photometer\photometer\img\logo128.png"
   inkscape:export-xdpi="90"
   inkscape:export-ydpi="90">
	<path
   d="m 54.038,37.175 c 0.01,-0.217 -0.105,-0.418 -0.295,-0.521 -0.191,-0.104 -0.424,-0.091 -0.6,0.036 -7.969,5.7 -14,6.729 -17.478,6.602 -0.228,-0.002 -0.457,0.135 -0.545,0.357 -0.088,0.221 -0.029,0.475 0.147,0.631 2.786,2.479 6.428,4.682 10.825,6.551 0.072,0.031 0.146,0.045 0.221,0.045 0.115,0 0.232,-0.035 0.33,-0.105 4.462,-3.18 7.157,-8.136 7.395,-13.596 z"
   id="path5"
   inkscape:connector-curvature="0"
   style="fill:#1b1819" />
	<path
   d="m 42.015,40.491 c -0.125,0.203 -0.109,0.461 0.037,0.648 0.109,0.139 0.275,0.215 0.443,0.215 0.061,0 0.121,-0.01 0.18,-0.029 3.533,-1.172 7.256,-3.223 11.068,-6.093 0.158,-0.118 0.242,-0.312 0.223,-0.507 -0.521,-5.45 -3.465,-10.265 -8.076,-13.2 -0.182,-0.115 -0.414,-0.117 -0.6,-0.005 -0.184,0.113 -0.289,0.321 -0.268,0.537 0.944,9.684 -1.113,15.37 -3.007,18.434 z"
   id="path7"
   inkscape:connector-curvature="0"
   style="fill:#1b1819" />
	<path
   d="m 28.29,21.775 c 8.858,4.022 12.752,8.647 14.459,11.821 0.1,0.186 0.293,0.298 0.5,0.298 0.027,0 0.053,-0.003 0.082,-0.006 0.236,-0.035 0.424,-0.215 0.473,-0.446 0.752,-3.646 0.836,-7.897 0.258,-12.633 -0.023,-0.195 -0.146,-0.365 -0.328,-0.446 -2.295,-1.045 -4.838,-1.599 -7.35,-1.599 -2.805,0 -5.614,0.688 -8.119,1.992 -0.19,0.102 -0.311,0.301 -0.305,0.519 0.006,0.216 0.133,0.41 0.33,0.5 z"
   id="path9"
   inkscape:connector-curvature="0"
   style="fill:#1b1819" />
	<path
   d="m 18.784,35.637 c -0.01,0.217 0.104,0.42 0.295,0.522 0.084,0.045 0.178,0.067 0.27,0.067 0.115,0 0.232,-0.035 0.33,-0.104 7.974,-5.702 14.021,-6.688 17.481,-6.604 0.227,0.005 0.455,-0.138 0.541,-0.357 0.088,-0.222 0.027,-0.474 -0.15,-0.631 -2.784,-2.479 -6.426,-4.681 -10.825,-6.548 -0.178,-0.077 -0.389,-0.056 -0.549,0.061 -4.459,3.178 -7.155,8.134 -7.393,13.594 z"
   id="path11"
   inkscape:connector-curvature="0"
   style="fill:#1b1819" />
	<path
   d="m 30.807,32.323 c 0.125,-0.203 0.111,-0.463 -0.036,-0.648 -0.146,-0.188 -0.396,-0.26 -0.623,-0.188 -3.537,1.174 -7.261,3.225 -11.07,6.096 -0.158,0.117 -0.242,0.311 -0.223,0.504 0.521,5.453 3.465,10.264 8.075,13.201 0.093,0.061 0.199,0.09 0.306,0.09 0.006,0 0.01,0 0.016,0 0.313,0 0.564,-0.254 0.564,-0.566 0,-0.064 -0.011,-0.125 -0.029,-0.184 -0.913,-9.604 1.136,-15.254 3.02,-18.305 z"
   id="path13"
   inkscape:connector-curvature="0"
   style="fill:#1b1819" />
	<path
   d="m 44.531,51.04 c -8.856,-4.023 -12.75,-8.65 -14.459,-11.824 -0.113,-0.209 -0.348,-0.322 -0.58,-0.293 -0.236,0.035 -0.426,0.215 -0.473,0.447 -0.752,3.648 -0.838,7.898 -0.259,12.633 0.023,0.197 0.146,0.367 0.326,0.447 2.297,1.045 4.838,1.598 7.351,1.598 2.807,0 5.614,-0.688 8.12,-1.99 0.191,-0.102 0.312,-0.303 0.307,-0.52 -0.009,-0.217 -0.136,-0.41 -0.333,-0.498 z"
   id="path15"
   inkscape:connector-curvature="0"
   style="fill:#1b1819" />
	<path
   d="m 12.647,26.567 c 0.625,0 1.133,-0.508 1.133,-1.133 v -9.802 c 0,-0.182 0.147,-0.329 0.33,-0.329 h 9.801 c 0.625,0 1.133,-0.507 1.133,-1.132 0,-0.625 -0.508,-1.132 -1.133,-1.132 H 14.11 c -1.433,0 -2.596,1.164 -2.596,2.594 v 9.802 c 0,0.623 0.508,1.132 1.133,1.132 z"
   id="path17"
   inkscape:connector-curvature="0"
   style="fill:#1b1819" />
	<path
   d="m 58.712,13.037 h -9.803 c -0.625,0 -1.133,0.507 -1.133,1.132 0,0.625 0.508,1.132 1.133,1.132 h 9.803 c 0.182,0 0.33,0.148 0.33,0.331 v 9.801 c 0,0.625 0.506,1.132 1.131,1.132 0.625,0 1.133,-0.507 1.133,-1.132 v -9.801 c 0,-1.431 -1.164,-2.595 -2.594,-2.595 z"
   id="path19"
   inkscape:connector-curvature="0"
   style="fill:#1b1819" />
	<path
   d="m 60.173,46.247 c -0.625,0 -1.131,0.508 -1.131,1.133 v 9.799 c 0,0.184 -0.148,0.332 -0.33,0.332 h -9.801 c -0.625,0 -1.133,0.508 -1.133,1.133 0,0.625 0.508,1.133 1.133,1.133 h 9.801 c 1.43,0 2.594,-1.166 2.594,-2.598 v -9.801 c 0,-0.623 -0.508,-1.131 -1.133,-1.131 z"
   id="path21"
   inkscape:connector-curvature="0"
   style="fill:#1b1819" />
	<path
   d="m 23.911,57.51 h -9.803 c -0.183,0 -0.328,-0.148 -0.328,-0.332 V 47.38 c 0,-0.625 -0.508,-1.133 -1.133,-1.133 -0.625,0 -1.134,0.508 -1.134,1.133 v 9.799 c 0,1.434 1.164,2.598 2.595,2.598 h 9.803 c 0.625,0 1.133,-0.508 1.133,-1.133 0,-0.625 -0.508,-1.134 -1.133,-1.134 z"
   id="path23"
   inkscape:connector-curvature="0"
   style="fill:#1b1819" />
</g>
</svg>